<svg width="135" height="40" viewBox="0 0 135 40" fill="none" xmlns="http://www.w3.org/2000/svg">
<path fill-rule="evenodd" clip-rule="evenodd" d="M49.8937 0C51.0027 0.221675 52.1087 0.459593 53.2214 0.662349C57.9103 1.51656 61.2541 4.49312 64.4994 7.62599C64.8666 7.98029 65.2056 8.36306 65.5873 8.76418C65.8283 8.45384 65.702 8.13164 65.7036 7.84213C65.7159 5.51741 65.7305 3.19212 65.6964 0.86778C65.6879 0.288177 65.8252 0.0913453 66.4381 0.120583C67.5313 0.173136 68.6322 0.185748 69.7235 0.117908C70.4595 0.0722354 70.6231 0.300408 70.6183 1.00938C70.585 6.04083 70.6005 11.0728 70.6005 16.1047C70.6005 19.4804 70.5815 22.8564 70.6167 26.2318C70.6235 26.9079 70.5181 27.1991 69.743 27.1448C68.6529 27.0686 67.5516 27.0911 66.458 27.1393C65.8699 27.1651 65.6995 27.0053 65.6891 26.4095C65.6488 24.1526 65.6719 21.8883 65.1975 19.6595C65.0114 18.7852 64.7947 17.914 64.3824 17.1251C62.5454 13.6114 59.9621 10.7346 56.6589 8.50237C56.0795 8.11081 55.3253 7.56522 54.7361 7.83716C54.2176 8.07661 54.5421 8.9784 54.54 9.58075C54.5204 15.0584 54.5094 20.5361 54.5479 26.0135C54.5541 26.8981 54.306 27.1976 53.4027 27.1437C52.1824 27.0709 50.9532 27.0946 49.7301 27.1385C49.1176 27.1605 48.9128 27.0118 48.9171 26.3627C48.9573 20.0576 48.9671 13.7521 48.9726 7.44674C48.9745 4.96456 48.943 2.48218 48.9267 0H49.8937Z" fill="#007642"/>
<path fill-rule="evenodd" clip-rule="evenodd" d="M128.457 12.0704C127.396 12.0385 126.333 12.0604 125.272 12.0604C124.243 12.0604 123.212 12.0327 122.184 12.0719C121.66 12.092 121.542 11.9074 121.552 11.4226C121.582 9.99275 121.533 8.56085 121.571 7.13124C121.625 5.08801 123.253 3.51546 125.276 3.49635C127.288 3.47762 128.951 5.04692 129.017 7.08996C129.064 8.55091 129.017 10.0145 129.046 11.4763C129.055 11.9278 128.928 12.0845 128.457 12.0704ZM134.604 5.18967C134.592 2.94006 132.979 0.985306 130.812 0.287604C130.464 0.175429 130.034 0.359266 129.762 0H129.376H121.253H120.48C120.383 0.291235 120.102 0.185557 119.906 0.246709C117.591 0.972502 115.996 2.91388 115.985 5.24796C115.953 12.3123 115.979 19.3769 115.961 26.4414C115.959 26.996 116.141 27.1397 116.677 27.1271C118.028 27.095 119.384 27.0701 120.733 27.1401C121.445 27.1771 121.582 26.9463 121.577 26.2979C121.547 22.8614 121.577 19.4243 121.549 15.9877C121.543 15.3745 121.698 15.1712 122.342 15.1853C124.241 15.2266 126.143 15.239 128.041 15.1813C128.82 15.1576 129.072 15.3223 129.059 16.15C129.005 19.554 129.051 22.9594 129.022 26.3642C129.017 26.9967 129.186 27.1683 129.836 27.1391C131.218 27.0762 132.605 27.095 133.988 27.1274C134.506 27.1397 134.636 26.969 134.634 26.4783C134.618 19.3822 134.642 12.2858 134.604 5.18967Z" fill="#007642"/>
<path fill-rule="evenodd" clip-rule="evenodd" d="M85.6914 13.6159C85.6914 11.4836 85.6895 9.35133 85.6922 7.21905C85.6937 5.9878 85.1905 4.98931 84.2041 4.26428C82.9896 3.37204 81.645 3.2377 80.2932 3.90234C78.821 4.62584 78.189 5.89588 78.1838 7.48602C78.1754 9.96839 78.1762 12.4508 78.1834 14.9331C78.189 16.7461 78.1089 18.5673 78.2536 20.3703C78.4263 22.523 80.1364 23.8601 82.2803 23.7252C84.2224 23.6035 85.6823 21.9809 85.6899 19.9172C85.6974 17.8168 85.6914 15.7165 85.6914 13.6159ZM91.2762 13.6612C91.2762 16.3022 91.2793 18.9434 91.2754 21.5843C91.2712 24.8605 88.9583 27.1323 85.6189 27.139C83.1718 27.1438 80.7241 27.1451 78.277 27.1388C75.0401 27.1304 72.6537 24.9563 72.6106 21.7644C72.538 16.3559 72.545 10.9453 72.6077 5.53662C72.645 2.33208 74.9997 0.14992 78.2408 0.137308C80.72 0.127562 83.1996 0.126415 85.6794 0.137881C89.0198 0.153169 91.272 2.41291 91.2754 5.73784C91.2785 8.37902 91.2762 11.0202 91.2762 13.6612Z" fill="#007642"/>
<path fill-rule="evenodd" clip-rule="evenodd" d="M93.2308 13.5599C93.2308 9.38863 93.2534 5.21732 93.2105 1.04659C93.2026 0.269772 93.4389 0.0845971 94.1774 0.119759C95.3989 0.178044 96.6278 0.180147 97.8491 0.11995C98.6793 0.0790552 98.8779 0.399719 98.8746 1.16947C98.8477 6.90052 98.8597 12.6322 98.8601 18.3634C98.8601 19.4525 98.956 19.5251 99.9688 19.0537C101.373 18.4001 102.425 17.324 103.382 16.1543C106.797 11.978 108.31 7.15736 108.338 1.83201C108.346 0.161992 108.367 0.161992 110.088 0.161992C111.151 0.161992 112.214 0.178618 113.277 0.154157C113.734 0.143647 113.968 0.206327 113.968 0.757265C113.964 5.50187 113.488 10.1966 111.523 14.5611C108.658 20.9257 103.602 24.8216 96.8057 26.5422C95.9355 26.7624 95.0359 26.8667 94.1569 27.0565C93.4598 27.2073 93.2051 27.038 93.2122 26.2642C93.2509 22.0298 93.2308 17.7947 93.2308 13.5599Z" fill="#007642"/>
<path fill-rule="evenodd" clip-rule="evenodd" d="M100.34 33.3453C100.34 33.7909 100.334 34.237 100.342 34.6826C100.345 34.8898 100.273 35.1806 100.625 35.1646C101.84 35.1093 103.085 35.3944 104.263 34.9358C105.022 34.6404 105.437 34.0451 105.382 33.218C105.326 32.3865 104.832 31.9038 104.027 31.69C103.425 31.5302 102.815 31.5427 102.204 31.5417C100.339 31.5385 100.339 31.5394 100.34 33.3453ZM104.117 36.0243C104.609 36.6805 105.046 37.2663 105.487 37.8495C105.907 38.4062 106.33 38.96 106.805 39.5851C105.978 39.8304 105.407 39.6982 104.969 38.9928C104.634 38.4528 104.12 38.0098 103.844 37.4476C103.211 36.1527 102.141 36.0149 100.886 36.1315C100.475 36.1695 100.319 36.2674 100.332 36.6821C100.356 37.4774 100.319 38.2745 100.347 39.0695C100.363 39.5134 100.229 39.6907 99.7551 39.6997C99.226 39.7098 99.2075 39.4329 99.209 39.0385C99.2189 36.4279 99.228 33.8167 99.2019 31.2063C99.197 30.6907 99.362 30.556 99.8602 30.5703C100.987 30.603 102.115 30.5755 103.243 30.5818C105.073 30.5917 106.277 31.4616 106.505 32.9289C106.722 34.3363 105.953 35.3648 104.117 36.0243Z" fill="#555655"/>
<path fill-rule="evenodd" clip-rule="evenodd" d="M59.1438 35.0617C59.1335 37.236 60.5779 38.8087 62.6025 38.8278C64.6789 38.8475 66.1542 37.3359 66.1647 35.1786C66.1749 33.0375 64.7019 31.4216 62.7032 31.3813C60.6901 31.341 59.1536 32.9296 59.1438 35.0617ZM67.3246 35.2121C67.294 37.8993 65.2089 39.9219 62.5276 39.8651C59.8862 39.8095 57.9602 37.7818 57.979 35.0764C57.9978 32.3257 60.0361 30.3562 62.8276 30.3916C65.434 30.4243 67.3555 32.4839 67.3246 35.2121Z" fill="#555655"/>
<path fill-rule="evenodd" clip-rule="evenodd" d="M124.775 35.1469C124.779 33.0068 123.292 31.4032 121.285 31.3815C119.275 31.3597 117.755 32.9575 117.752 35.0939C117.749 37.249 119.218 38.8185 121.247 38.8278C123.318 38.8374 124.772 37.3195 124.775 35.1469ZM125.94 35.0916C125.945 37.8137 123.942 39.8586 121.262 39.8655C118.573 39.8726 116.584 37.8429 116.593 35.1014C116.602 32.383 118.607 30.3847 121.319 30.3914C123.973 30.3977 125.935 32.3931 125.94 35.0916Z" fill="#555655"/>
<path fill-rule="evenodd" clip-rule="evenodd" d="M70.5468 32.3798C70.5468 34.6834 70.5509 36.737 70.543 38.7905C70.5416 39.2003 70.7263 39.7155 69.9527 39.6994C69.213 39.6841 69.4463 39.1773 69.4443 38.8225C69.4296 36.3407 69.4289 33.8585 69.4472 31.3765C69.4495 31.1099 69.2128 30.6794 69.7102 30.596C70.1156 30.5282 70.4878 30.5538 70.8063 30.9664C72.407 33.0389 74.0477 35.0809 75.6768 37.132C75.7853 37.269 75.9125 37.3917 76.1512 37.6518V31.3044C76.1512 30.9314 76.0496 30.554 76.6936 30.5616C77.3554 30.5693 77.2059 30.9817 77.2069 31.3312C77.213 33.7495 77.2227 36.1681 77.196 38.5861C77.1918 38.9476 77.4819 39.4737 76.9369 39.6635C76.3552 39.8659 76.09 39.361 75.7959 38.9904C74.1067 36.8645 72.4188 34.7379 70.5468 32.3798Z" fill="#555655"/>
<path fill-rule="evenodd" clip-rule="evenodd" d="M95.7512 33.8098C95.7512 32.9191 95.7773 32.0273 95.7409 31.1381C95.7206 30.6368 95.956 30.5806 96.3766 30.5678C96.8508 30.5537 96.8865 30.787 96.8834 31.1534C96.8718 32.7756 96.8956 34.3984 96.8738 36.0205C96.8421 38.3725 95.4195 39.8199 93.1325 39.8652C90.8217 39.9112 89.3089 38.5485 89.2047 36.2055C89.1296 34.5226 89.2041 32.8337 89.1756 31.1478C89.1677 30.6586 89.3729 30.5784 89.8041 30.5669C90.2733 30.5547 90.3201 30.7761 90.3174 31.1471C90.3054 32.7695 90.2884 34.3925 90.3197 36.0142C90.3557 37.8852 91.388 38.8701 93.2006 38.8277C94.6914 38.7927 95.6549 37.8877 95.7326 36.3862C95.7773 35.5295 95.7409 34.6686 95.7409 33.8098H95.7512Z" fill="#555655"/>
<path fill-rule="evenodd" clip-rule="evenodd" d="M111.68 39.7475C110.47 39.7894 109.41 39.3921 108.462 38.6709C108.209 38.479 107.9 38.3286 108.273 37.9382C108.543 37.655 108.697 37.4467 109.104 37.8006C109.935 38.5228 110.941 38.8362 112.048 38.7619C113.07 38.6931 113.695 38.1798 113.77 37.4135C113.867 36.4219 113.196 36.0874 112.409 35.8581C111.641 35.6343 110.852 35.4675 110.101 35.1975C108.85 34.7484 108.282 33.9458 108.355 32.8638C108.428 31.7835 109.218 30.8569 110.388 30.6008C111.729 30.3078 113.009 30.4888 114.174 31.2614C114.452 31.4458 114.745 31.5857 114.41 31.9784C114.173 32.2559 114.035 32.5118 113.593 32.1766C112.825 31.5943 111.91 31.4063 110.946 31.5186C110.212 31.6044 109.638 31.9459 109.499 32.7015C109.354 33.4942 109.831 33.9718 110.538 34.2028C111.297 34.4514 112.089 34.6041 112.851 34.8474C114.459 35.3614 115.078 36.2279 114.884 37.6269C114.717 38.8278 113.552 39.7045 112.067 39.746C111.938 39.7496 111.809 39.7466 111.68 39.7475Z" fill="#555655"/>
<path fill-rule="evenodd" clip-rule="evenodd" d="M131.162 39.7469C129.913 39.8041 128.838 39.3634 127.852 38.6414C127.533 38.4075 127.433 38.2237 127.747 37.8946C127.998 37.63 128.154 37.4776 128.514 37.7802C129.324 38.4618 130.28 38.8071 131.357 38.7679C132.394 38.7301 133.15 38.2115 133.234 37.4564C133.349 36.4243 132.628 36.0815 131.81 35.8434C131.041 35.6196 130.251 35.4554 129.502 35.1824C128.252 34.7272 127.764 33.9889 127.829 32.8145C127.883 31.8181 128.603 30.9184 129.698 30.6396C131.1 30.2832 132.443 30.4616 133.66 31.2925C133.897 31.455 134.203 31.5845 133.876 31.9388C133.653 32.1802 133.541 32.5706 133.067 32.1993C132.272 31.5769 131.324 31.3946 130.333 31.5282C129.656 31.6193 129.106 31.9339 128.97 32.6711C128.823 33.4684 129.24 33.9528 129.957 34.1942C130.593 34.4084 131.251 34.559 131.898 34.7409C133.769 35.267 134.556 36.144 134.375 37.4994C134.189 38.8899 132.961 39.7494 131.162 39.7469Z" fill="#555655"/>
<path fill-rule="evenodd" clip-rule="evenodd" d="M79.282 34.3917C79.3122 33.209 80.1134 31.6663 81.9113 30.8337C83.6694 30.0188 85.4189 30.2051 87.0076 31.3771C87.2814 31.5789 87.6388 31.7471 87.2267 32.1845C86.9026 32.5287 86.7075 32.5644 86.2954 32.2627C84.774 31.1486 83.2091 31.0913 81.9272 32.02C80.5941 32.9862 80.067 34.8227 80.6464 36.4812C81.4164 38.6855 83.9343 39.5388 85.9248 38.2678C86.0865 38.1646 86.2673 38.0708 86.3897 37.9305C86.7396 37.5294 87.0084 37.6412 87.3238 37.9853C87.7711 38.4728 87.2279 38.6011 87.0171 38.7666C85.4712 39.981 83.7533 40.2166 81.9475 39.4453C80.2704 38.7291 79.2847 37.0746 79.282 34.3917Z" fill="#555655"/>
<path fill-rule="evenodd" clip-rule="evenodd" d="M48.3068 34.4922C48.3476 33.1679 49.1591 31.6387 50.9651 30.8162C52.6961 30.0276 54.4159 30.2129 55.9746 31.3484C56.2065 31.5172 56.6979 31.6444 56.2898 32.136C55.9647 32.5279 55.7404 32.5793 55.2889 32.2474C53.7561 31.1206 52.1587 31.0954 50.8452 32.091C49.5985 33.0362 49.1038 34.9107 49.6805 36.5035C50.4811 38.7147 52.9785 39.5441 54.9676 38.2567C55.1554 38.1351 55.3517 38.0122 55.5024 37.8517C55.8866 37.4418 56.1106 37.763 56.3583 38.0077C56.7101 38.3551 56.3494 38.5106 56.1517 38.6763C54.6381 39.9433 52.923 40.2103 51.1017 39.507C49.3318 38.8235 48.2991 37.1198 48.3068 34.4922Z" fill="#555655"/>
<path fill-rule="evenodd" clip-rule="evenodd" d="M38.5178 21.6631C35.6191 31.1997 24.5591 38.0667 14.7026 36.4517C6.52469 35.1113 1.79021 28.2398 3.7057 19.9975C3.81516 19.5266 3.84378 19.0143 4.30617 18.4229C4.20851 20.6201 4.32512 22.6024 4.86525 24.5355C5.80781 27.9105 7.72427 30.5301 10.9078 32.1908C11.4887 32.4939 11.7384 32.4434 12.0414 31.8304C13.8761 28.1188 15.0412 24.2703 14.6958 20.0835C14.3963 16.4496 12.837 13.4338 10.0002 11.1202C9.26595 10.5215 9.36883 10.2499 10.008 9.73818C13.3944 7.02649 12.3402 7.09146 16.4508 8.52719C23.9422 11.1437 29.4257 16.2092 33.4696 22.8808C33.6344 23.1522 33.7993 23.4233 33.9589 23.6976C34.0995 23.9395 34.2327 24.1855 34.4313 24.5409C38.6591 17.991 37.5905 6.58467 25.5738 3.9819C26.6322 3.82004 27.673 4.01993 28.6961 4.25804C36.8869 6.16425 41.0064 13.4753 38.5178 21.6631ZM35.4338 3.79252C30.8256 0.483068 25.5527 -0.350315 20.083 0.803732C10.8598 2.74988 4.4222 7.9344 1.15591 16.5883C1.20696 17.3753 1.13657 18.1484 1.03601 18.9327C0.971029 19.4395 0.898123 19.9452 0.823669 20.4506C0.799302 20.6115 0.775709 20.7724 0.751729 20.9333C0.746895 20.9792 0.735678 21.0753 0.71808 21.223C0.645173 22.0346 0.549834 22.8437 0.513284 23.6584C0.492012 24.1302 0.485823 24.603 0.503421 25.0752C0.51193 25.3147 0.526434 25.5537 0.54732 25.7926C0.555829 25.8807 0.562598 25.9506 0.568206 26.008C0.569753 26.0162 0.571687 26.0242 0.573427 26.0322C0.657744 26.5629 0.650975 27.0747 0.554862 27.5486C1.56144 31.2947 3.66316 34.345 6.90161 36.6145C11.2733 39.6782 16.1869 40.4711 21.422 39.7537C31.4756 38.3763 40.9484 30.0816 42.2023 19.6514C42.9848 13.142 40.8734 7.69935 35.4338 3.79252Z" fill="#50647B"/>
<path fill-rule="evenodd" clip-rule="evenodd" d="M15.0862 11.2007C18.9039 12.8674 22.1522 15.0234 24.7919 18.0069C27.5277 21.0988 29.3355 24.6519 30.0914 28.7147C30.2048 29.3232 30.0899 29.7096 29.5768 30.0849C25.4718 33.0884 20.9313 34.4089 15.8338 33.6227C15.4293 33.56 14.8638 33.6214 15.2864 32.8658C19.2359 25.8039 18.8901 18.7256 15.3181 11.6475C15.2752 11.5628 15.2307 11.4789 15.0862 11.2007Z" fill="#62A572"/>
<path fill-rule="evenodd" clip-rule="evenodd" d="M35.4338 3.79248L31.7275 5.29146C37.8596 8.11839 40.6769 14.5596 38.5177 21.6631C35.6191 31.1999 24.5593 38.0667 14.7026 36.4517C6.52466 35.1113 1.79018 28.2398 3.70567 19.9975C3.81532 19.5266 3.84375 18.6321 4.30613 18.0408L0.711468 17.8363C0.406885 18.7588 0.267453 19.4263 0 20.6386V23.5338C0.00386773 23.6119 0.00618836 23.6903 0.0104429 23.7682C0.0599498 24.6574 0.108877 25.3169 0.189519 25.9707C0.337459 26.1883 0.298589 26.4815 0.350416 26.7171C1.25914 30.8458 3.42661 34.1791 6.90157 36.6145C11.2733 39.6784 16.1868 40.4711 21.422 39.7537C31.4756 38.3762 40.9486 30.0816 42.2023 19.6514C42.9848 13.142 40.8734 7.69931 35.4338 3.79248Z" fill="#898A8C"/>
<path fill-rule="evenodd" clip-rule="evenodd" d="M35.5386 3.67445C31.1669 0.610749 26.2534 -0.182121 21.0182 0.535265C11.0368 1.90296 1.6291 9.89816 0.267471 20.2228C0.453702 20.1875 0.642834 20.3574 0.833126 20.3574C1.85382 20.3574 2.72599 20.8193 3.31041 21.5307C3.42218 20.5804 3.60899 19.8827 3.99635 18.9295C8.14584 8.71793 18.2568 2.8724 27.774 4.06486C32.6902 4.68077 37.6798 8.59524 38.8262 13.7005C39.4468 12.968 40.3907 12.4887 41.359 12.4887C41.5181 12.4887 41.6721 12.5036 41.8235 12.5254C40.7947 8.87807 38.7144 5.90018 35.5386 3.67445Z" fill="#898A8C"/>
</svg>
